<svg width="340" height="285" viewBox="0 0 340 285" fill="none" xmlns="http://www.w3.org/2000/svg">
<rect x="0.5" y="0.5" width="339" height="284" rx="15.8861" fill="white" stroke="#F0F0F0"/>
<path d="M27.5554 60.8867V67.2158C27.5554 67.9204 27.3382 68.4857 26.904 68.9118C26.4698 69.3296 25.8963 69.5385 25.1835 69.5385C24.4625 69.5385 23.8849 69.3255 23.4506 68.8995C23.0164 68.4652 22.7993 67.8753 22.7993 67.1298H23.9176C23.9258 67.5476 24.0323 67.8876 24.2372 68.1498C24.4502 68.412 24.7656 68.5431 25.1835 68.5431C25.6013 68.5431 25.9127 68.4202 26.1175 68.1744C26.3223 67.9204 26.4247 67.6009 26.4247 67.2158V60.8867H27.5554ZM29.4636 66.0606C29.4636 65.3724 29.6029 64.7702 29.8815 64.254C30.16 63.7297 30.541 63.3241 31.0244 63.0373C31.516 62.7506 32.0608 62.6072 32.6589 62.6072C33.2488 62.6072 33.7609 62.7342 34.1951 62.9882C34.6293 63.2422 34.953 63.5617 35.166 63.9468V62.7178H36.2966V69.4525H35.166V68.199C34.9448 68.5922 34.613 68.92 34.1705 69.1821C33.7363 69.4361 33.2283 69.5631 32.6466 69.5631C32.0485 69.5631 31.5078 69.4156 31.0244 69.1207C30.541 68.8257 30.16 68.412 29.8815 67.8794C29.6029 67.3469 29.4636 66.7406 29.4636 66.0606ZM35.166 66.0729C35.166 65.5649 35.0636 65.1225 34.8587 64.7456C34.6539 64.3687 34.3754 64.082 34.0231 63.8853C33.6789 63.6805 33.298 63.5781 32.8801 63.5781C32.4623 63.5781 32.0813 63.6764 31.7372 63.873C31.3931 64.0697 31.1186 64.3564 30.9138 64.7333C30.709 65.1102 30.6065 65.5526 30.6065 66.0606C30.6065 66.5767 30.709 67.0274 30.9138 67.4124C31.1186 67.7893 31.3931 68.0802 31.7372 68.285C32.0813 68.4816 32.4623 68.58 32.8801 68.58C33.298 68.58 33.6789 68.4816 34.0231 68.285C34.3754 68.0802 34.6539 67.7893 34.8587 67.4124C35.0636 67.0274 35.166 66.5808 35.166 66.0729ZM41.5908 62.5949C42.4101 62.5949 43.0737 62.8448 43.5817 63.3446C44.0896 63.8362 44.3436 64.549 44.3436 65.483V69.4525H43.2376V65.6427C43.2376 64.9709 43.0696 64.4588 42.7337 64.1065C42.3978 63.746 41.939 63.5658 41.3573 63.5658C40.7674 63.5658 40.2963 63.7501 39.944 64.1188C39.5998 64.4875 39.4278 65.0242 39.4278 65.7288V69.4525H38.3094V62.7178H39.4278V63.6764C39.649 63.3323 39.9481 63.066 40.3249 62.8776C40.71 62.6891 41.1319 62.5949 41.5908 62.5949ZM52.2661 62.7178V69.4525H51.1478V68.4571C50.9347 68.8012 50.6357 69.0715 50.2506 69.2682C49.8737 69.4566 49.4559 69.5508 48.9971 69.5508C48.4727 69.5508 48.0016 69.4443 47.5838 69.2313C47.1659 69.0101 46.8341 68.6824 46.5883 68.2481C46.3507 67.8139 46.2319 67.2854 46.2319 66.6628V62.7178H47.338V66.5153C47.338 67.1789 47.5059 67.691 47.8418 68.0515C48.1778 68.4038 48.6366 68.58 49.2183 68.58C49.8164 68.58 50.2875 68.3956 50.6316 68.0269C50.9757 67.6582 51.1478 67.1216 51.1478 66.417V62.7178H52.2661ZM53.8594 66.0606C53.8594 65.3724 53.9987 64.7702 54.2773 64.254C54.5558 63.7297 54.9368 63.3241 55.4202 63.0373C55.9118 62.7506 56.4566 62.6072 57.0547 62.6072C57.6446 62.6072 58.1567 62.7342 58.5909 62.9882C59.0252 63.2422 59.3488 63.5617 59.5618 63.9468V62.7178H60.6925V69.4525H59.5618V68.199C59.3406 68.5922 59.0088 68.92 58.5664 69.1821C58.1321 69.4361 57.6242 69.5631 57.0424 69.5631C56.4443 69.5631 55.9036 69.4156 55.4202 69.1207C54.9368 68.8257 54.5558 68.412 54.2773 67.8794C53.9987 67.3469 53.8594 66.7406 53.8594 66.0606ZM59.5618 66.0729C59.5618 65.5649 59.4594 65.1225 59.2546 64.7456C59.0497 64.3687 58.7712 64.082 58.4189 63.8853C58.0748 63.6805 57.6938 63.5781 57.2759 63.5781C56.8581 63.5781 56.4771 63.6764 56.133 63.873C55.7889 64.0697 55.5144 64.3564 55.3096 64.7333C55.1048 65.1102 55.0024 65.5526 55.0024 66.0606C55.0024 66.5767 55.1048 67.0274 55.3096 67.4124C55.5144 67.7893 55.7889 68.0802 56.133 68.285C56.4771 68.4816 56.8581 68.58 57.2759 68.58C57.6938 68.58 58.0748 68.4816 58.4189 68.285C58.7712 68.0802 59.0497 67.7893 59.2546 67.4124C59.4594 67.0274 59.5618 66.5808 59.5618 66.0729ZM63.8236 63.8116C64.0202 63.4265 64.2988 63.1275 64.6593 62.9144C65.028 62.7014 65.4745 62.5949 65.9989 62.5949V63.7501H65.7039C64.4504 63.7501 63.8236 64.4302 63.8236 65.7902V69.4525H62.7053V62.7178H63.8236V63.8116ZM73.2135 62.7178L69.1579 72.6232H68.0027L69.3299 69.3788L66.6139 62.7178H67.8552L69.969 68.1744L72.0582 62.7178H73.2135ZM77.5404 68.5554C78.5809 67.7197 79.3961 67.0356 79.986 66.503C80.5759 65.9623 81.0716 65.401 81.473 64.8193C81.8827 64.2294 82.0875 63.6518 82.0875 63.0865C82.0875 62.554 81.9564 62.1361 81.6942 61.833C81.4403 61.5216 81.0265 61.366 80.453 61.366C79.8959 61.366 79.4616 61.5421 79.1503 61.8944C78.8471 62.2385 78.6833 62.7014 78.6587 63.2831H77.5772C77.61 62.3655 77.8886 61.6568 78.4129 61.157C78.9373 60.6573 79.6132 60.4074 80.4407 60.4074C81.2846 60.4074 81.9523 60.6409 82.4439 61.1079C82.9437 61.5749 83.1936 62.218 83.1936 63.0373C83.1936 63.7174 82.9887 64.381 82.5791 65.0283C82.1776 65.6673 81.7188 66.2326 81.2027 66.7242C80.6865 67.2076 80.0269 67.7729 79.224 68.4202H83.4517V69.3542H77.5404V68.5554ZM84.8674 64.9177C84.8674 63.5084 85.0968 62.4106 85.5556 61.624C86.0144 60.8293 86.8173 60.4319 87.9643 60.4319C89.1032 60.4319 89.902 60.8293 90.3608 61.624C90.8196 62.4106 91.049 63.5084 91.049 64.9177C91.049 66.3514 90.8196 67.4657 90.3608 68.2604C89.902 69.0552 89.1032 69.4525 87.9643 69.4525C86.8173 69.4525 86.0144 69.0552 85.5556 68.2604C85.0968 67.4657 84.8674 66.3514 84.8674 64.9177ZM89.943 64.9177C89.943 64.2049 89.8938 63.6027 89.7955 63.1111C89.7054 62.6113 89.5128 62.2098 89.2179 61.9067C88.9311 61.6036 88.5133 61.452 87.9643 61.452C87.4072 61.452 86.9812 61.6036 86.6862 61.9067C86.3995 62.2098 86.2069 62.6113 86.1086 63.1111C86.0185 63.6027 85.9734 64.2049 85.9734 64.9177C85.9734 65.655 86.0185 66.2736 86.1086 66.7734C86.2069 67.2732 86.3995 67.6746 86.6862 67.9778C86.9812 68.2809 87.4072 68.4325 87.9643 68.4325C88.5133 68.4325 88.9311 68.2809 89.2179 67.9778C89.5128 67.6746 89.7054 67.2732 89.7955 66.7734C89.8938 66.2736 89.943 65.655 89.943 64.9177ZM92.5721 68.5554C93.6126 67.7197 94.4278 67.0356 95.0177 66.503C95.6076 65.9623 96.1033 65.401 96.5047 64.8193C96.9144 64.2294 97.1192 63.6518 97.1192 63.0865C97.1192 62.554 96.9881 62.1361 96.726 61.833C96.472 61.5216 96.0582 61.366 95.4847 61.366C94.9276 61.366 94.4933 61.5421 94.182 61.8944C93.8789 62.2385 93.715 62.7014 93.6904 63.2831H92.6089C92.6417 62.3655 92.9203 61.6568 93.4446 61.157C93.969 60.6573 94.6449 60.4074 95.4724 60.4074C96.3163 60.4074 96.984 60.6409 97.4756 61.1079C97.9754 61.5749 98.2253 62.218 98.2253 63.0373C98.2253 63.7174 98.0205 64.381 97.6108 65.0283C97.2094 65.6673 96.7505 66.2326 96.2344 66.7242C95.7182 67.2076 95.0587 67.7729 94.2558 68.4202H98.4834V69.3542H92.5721V68.5554ZM99.8745 62.8038C99.9319 62.0501 100.223 61.4602 100.747 61.0341C101.271 60.6081 101.951 60.3951 102.787 60.3951C103.344 60.3951 103.824 60.4975 104.225 60.7023C104.635 60.8989 104.942 61.1693 105.147 61.5134C105.36 61.8575 105.466 62.2467 105.466 62.6809C105.466 63.1889 105.319 63.6272 105.024 63.9959C104.737 64.3646 104.36 64.6022 103.893 64.7087V64.7702C104.426 64.9013 104.848 65.1593 105.159 65.5444C105.47 65.9295 105.626 66.4334 105.626 67.056C105.626 67.523 105.52 67.945 105.307 68.3219C105.093 68.6906 104.774 68.9814 104.348 69.1944C103.922 69.4075 103.41 69.514 102.812 69.514C101.943 69.514 101.23 69.2887 100.673 68.838C100.116 68.3792 99.8049 67.732 99.7393 66.8963H100.821C100.878 67.3879 101.079 67.7893 101.423 68.1007C101.767 68.412 102.226 68.5677 102.799 68.5677C103.373 68.5677 103.807 68.4202 104.102 68.1252C104.405 67.8221 104.557 67.4329 104.557 66.9577C104.557 66.3432 104.352 65.9008 103.942 65.6304C103.533 65.3601 102.914 65.2249 102.087 65.2249H101.804V64.2909H102.099C102.853 64.2827 103.422 64.1598 103.807 63.9222C104.192 63.6764 104.385 63.2995 104.385 62.7915C104.385 62.3573 104.241 62.0091 103.955 61.7469C103.676 61.4848 103.275 61.3537 102.75 61.3537C102.242 61.3537 101.833 61.4848 101.521 61.7469C101.21 62.0091 101.026 62.3614 100.968 62.8038H99.8745Z" fill="black"/>
<path d="M283.242 62.4445C283.6 62.8003 283.601 63.3795 283.244 63.7366L280.496 66.4844C280.061 66.9201 280.061 67.6264 280.496 68.0621L283.244 70.8099C283.601 71.167 283.6 71.7462 283.242 72.102C282.885 72.456 282.31 72.455 281.954 72.0997L277.917 68.0621C277.481 67.6264 277.481 66.9201 277.917 66.4844L281.954 62.4468C282.31 62.0915 282.885 62.0905 283.242 62.4445Z" fill="#546FEA"/>
<path d="M309.723 72.1018C309.365 71.7461 309.364 71.1668 309.721 70.8098L312.469 68.0619C312.905 67.6263 312.905 66.92 312.469 66.4843L309.721 63.7365C309.364 63.3794 309.365 62.8002 309.723 62.4444C310.08 62.0904 310.656 62.0914 311.011 62.4467L315.049 66.4843C315.484 66.92 315.484 67.6263 315.049 68.0619L311.011 72.0996C310.656 72.4548 310.08 72.4559 309.723 72.1018Z" fill="#546FEA"/>
<line x1="22.0378" y1="77.8507" x2="316.936" y2="77.8507" stroke="#D2D2D2" stroke-width="0.875169"/>
<path d="M36.1585 109.578C35.7012 109.578 35.2904 109.499 34.9259 109.34C34.5681 109.174 34.2865 108.949 34.081 108.664C33.8756 108.372 33.7696 108.038 33.7629 107.66H34.7271C34.7603 107.985 34.8928 108.26 35.1247 108.485C35.3633 108.704 35.7079 108.813 36.1585 108.813C36.5892 108.813 36.9272 108.707 37.1724 108.495C37.4242 108.276 37.5501 107.998 37.5501 107.66C37.5501 107.395 37.4772 107.18 37.3314 107.014C37.1856 106.848 37.0034 106.722 36.7847 106.636C36.566 106.55 36.2711 106.457 35.9 106.358C35.4428 106.239 35.075 106.119 34.7967 106C34.525 105.881 34.2898 105.695 34.091 105.443C33.8988 105.185 33.8027 104.84 33.8027 104.41C33.8027 104.032 33.8988 103.697 34.091 103.406C34.2831 103.114 34.5515 102.889 34.8961 102.73C35.2473 102.571 35.6482 102.491 36.0988 102.491C36.7483 102.491 37.2784 102.654 37.6892 102.978C38.1067 103.303 38.342 103.734 38.395 104.271H37.401C37.3679 104.005 37.2287 103.774 36.9835 103.575C36.7383 103.369 36.4136 103.267 36.0094 103.267C35.6317 103.267 35.3235 103.366 35.085 103.565C34.8464 103.757 34.7271 104.029 34.7271 104.38C34.7271 104.632 34.7967 104.837 34.9359 104.996C35.0817 105.155 35.2573 105.278 35.4627 105.364C35.6747 105.443 35.9696 105.536 36.3473 105.642C36.8046 105.768 37.1724 105.894 37.4507 106.02C37.729 106.139 37.9676 106.328 38.1664 106.587C38.3652 106.838 38.4646 107.183 38.4646 107.62C38.4646 107.958 38.3751 108.276 38.1962 108.575C38.0173 108.873 37.7522 109.115 37.401 109.3C37.0498 109.486 36.6356 109.578 36.1585 109.578ZM40.6803 102.581V106.964C40.6803 107.581 40.8294 108.038 41.1276 108.336C41.4325 108.634 41.8533 108.783 42.39 108.783C42.9201 108.783 43.3343 108.634 43.6325 108.336C43.9373 108.038 44.0898 107.581 44.0898 106.964V102.581H44.9943V106.954C44.9943 107.531 44.8783 108.018 44.6464 108.416C44.4145 108.806 44.0997 109.098 43.7021 109.29C43.3111 109.482 42.8704 109.578 42.3801 109.578C41.8897 109.578 41.4457 109.482 41.0481 109.29C40.6571 109.098 40.3457 108.806 40.1138 108.416C39.8884 108.018 39.7758 107.531 39.7758 106.954V102.581H40.6803ZM51.9504 109.509H51.0458L47.4078 103.992V109.509H46.5032V102.571H47.4078L51.0458 108.078V102.571H51.9504V109.509Z" fill="#2B2B36"/>
<path d="M82.1291 102.63V109.509H81.2245V104.38L78.9383 109.509H78.3022L76.006 104.37V109.509H75.1015V102.63H76.0756L78.6203 108.316L81.1649 102.63H82.1291ZM86.8041 109.578C86.1613 109.578 85.5749 109.429 85.0448 109.131C84.5146 108.826 84.0938 108.406 83.7824 107.869C83.4775 107.325 83.3251 106.716 83.3251 106.04C83.3251 105.364 83.4775 104.758 83.7824 104.221C84.0938 103.677 84.5146 103.257 85.0448 102.958C85.5749 102.654 86.1613 102.501 86.8041 102.501C87.4535 102.501 88.0433 102.654 88.5735 102.958C89.1036 103.257 89.5211 103.674 89.8259 104.211C90.1307 104.748 90.2831 105.357 90.2831 106.04C90.2831 106.722 90.1307 107.332 89.8259 107.869C89.5211 108.406 89.1036 108.826 88.5735 109.131C88.0433 109.429 87.4535 109.578 86.8041 109.578ZM86.8041 108.793C87.2879 108.793 87.7219 108.681 88.1063 108.455C88.4972 108.23 88.8021 107.909 89.0208 107.491C89.2461 107.074 89.3587 106.59 89.3587 106.04C89.3587 105.483 89.2461 104.999 89.0208 104.589C88.8021 104.171 88.5006 103.85 88.1162 103.624C87.7319 103.399 87.2945 103.286 86.8041 103.286C86.3138 103.286 85.8764 103.399 85.4921 103.624C85.1077 103.85 84.8029 104.171 84.5776 104.589C84.3589 104.999 84.2496 105.483 84.2496 106.04C84.2496 106.59 84.3589 107.074 84.5776 107.491C84.8029 107.909 85.1077 108.23 85.4921 108.455C85.883 108.681 86.3204 108.793 86.8041 108.793ZM96.9244 109.509H96.0198L92.3818 103.992V109.509H91.4773V102.571H92.3818L96.0198 108.078V102.571H96.9244V109.509Z" fill="#2B2B36"/>
<path d="M125.517 102.581V103.316H123.628V109.509H122.723V103.316H120.825V102.581H125.517ZM127.515 102.581V106.964C127.515 107.581 127.664 108.038 127.962 108.336C128.267 108.634 128.688 108.783 129.224 108.783C129.754 108.783 130.169 108.634 130.467 108.336C130.772 108.038 130.924 107.581 130.924 106.964V102.581H131.829V106.954C131.829 107.531 131.713 108.018 131.481 108.416C131.249 108.806 130.934 109.098 130.536 109.29C130.145 109.482 129.705 109.578 129.214 109.578C128.724 109.578 128.28 109.482 127.882 109.29C127.491 109.098 127.18 108.806 126.948 108.416C126.723 108.018 126.61 107.531 126.61 106.954V102.581H127.515ZM134.242 103.316V105.632H136.767V106.378H134.242V108.763H137.065V109.509H133.338V102.571H137.065V103.316H134.242Z" fill="#2B2B36"/>
<path d="M170.696 102.581L168.688 109.509H167.674L166.064 103.933L164.394 109.509L163.39 109.519L161.452 102.581H162.416L163.927 108.455L165.597 102.581H166.611L168.201 108.435L169.722 102.581H170.696ZM172.59 103.316V105.632H175.115V106.378H172.59V108.763H175.413V109.509H171.686V102.571H175.413V103.316H172.59ZM178.939 102.581C179.694 102.581 180.347 102.723 180.897 103.008C181.454 103.286 181.878 103.687 182.169 104.211C182.468 104.734 182.617 105.351 182.617 106.06C182.617 106.769 182.468 107.385 182.169 107.909C181.878 108.425 181.454 108.823 180.897 109.101C180.347 109.373 179.694 109.509 178.939 109.509H176.782V102.581H178.939ZM178.939 108.763C179.834 108.763 180.516 108.528 180.987 108.058C181.457 107.581 181.692 106.915 181.692 106.06C181.692 105.198 181.454 104.526 180.977 104.042C180.506 103.558 179.827 103.316 178.939 103.316H177.686V108.763H178.939Z" fill="#2B2B36"/>
<path d="M210.739 102.581V103.316H208.85V109.509H207.946V103.316H206.047V102.581H210.739ZM217.19 102.581V109.509H216.285V106.368H212.757V109.509H211.852V102.581H212.757V105.622H216.285V102.581H217.19ZM219.619 102.581V106.964C219.619 107.581 219.768 108.038 220.066 108.336C220.371 108.634 220.792 108.783 221.329 108.783C221.859 108.783 222.273 108.634 222.571 108.336C222.876 108.038 223.029 107.581 223.029 106.964V102.581H223.933V106.954C223.933 107.531 223.817 108.018 223.585 108.416C223.353 108.807 223.038 109.098 222.641 109.29C222.25 109.483 221.809 109.579 221.319 109.579C220.828 109.579 220.384 109.483 219.987 109.29C219.596 109.098 219.284 108.807 219.053 108.416C218.827 108.018 218.715 107.531 218.715 106.954V102.581H219.619Z" fill="#2B2B36"/>
<path d="M256.182 102.581V103.316H253.171V105.652H255.616V106.388H253.171V109.509H252.266V102.581H256.182ZM260.923 109.509L259.273 106.676H258.179V109.509H257.275V102.581H259.511C260.035 102.581 260.476 102.67 260.833 102.849C261.198 103.028 261.47 103.27 261.648 103.575C261.827 103.88 261.917 104.227 261.917 104.618C261.917 105.096 261.778 105.516 261.499 105.881C261.228 106.245 260.817 106.487 260.267 106.606L262.006 109.509H260.923ZM258.179 105.95H259.511C260.002 105.95 260.37 105.831 260.615 105.593C260.86 105.347 260.983 105.023 260.983 104.618C260.983 104.208 260.86 103.889 260.615 103.664C260.376 103.439 260.008 103.326 259.511 103.326H258.179V105.95ZM264.227 102.581V109.509H263.322V102.581H264.227Z" fill="#2B2B36"/>
<path d="M295.316 109.578C294.859 109.578 294.448 109.499 294.084 109.34C293.726 109.174 293.444 108.949 293.239 108.664C293.033 108.372 292.927 108.038 292.921 107.66H293.885C293.918 107.985 294.05 108.26 294.282 108.485C294.521 108.704 294.866 108.813 295.316 108.813C295.747 108.813 296.085 108.707 296.33 108.495C296.582 108.276 296.708 107.998 296.708 107.66C296.708 107.395 296.635 107.18 296.489 107.014C296.343 106.848 296.161 106.722 295.942 106.636C295.724 106.55 295.429 106.457 295.058 106.358C294.601 106.239 294.233 106.119 293.954 106C293.683 105.881 293.447 105.695 293.249 105.443C293.056 105.185 292.96 104.84 292.96 104.41C292.96 104.032 293.056 103.697 293.249 103.406C293.441 103.114 293.709 102.889 294.054 102.73C294.405 102.571 294.806 102.491 295.257 102.491C295.906 102.491 296.436 102.654 296.847 102.978C297.264 103.303 297.5 103.734 297.553 104.271H296.559C296.526 104.005 296.386 103.774 296.141 103.575C295.896 103.369 295.571 103.267 295.167 103.267C294.789 103.267 294.481 103.366 294.243 103.565C294.004 103.757 293.885 104.029 293.885 104.38C293.885 104.632 293.954 104.837 294.094 104.996C294.239 105.155 294.415 105.278 294.62 105.364C294.832 105.443 295.127 105.536 295.505 105.642C295.962 105.768 296.33 105.894 296.608 106.02C296.887 106.139 297.125 106.328 297.324 106.587C297.523 106.838 297.622 107.183 297.622 107.62C297.622 107.958 297.533 108.276 297.354 108.575C297.175 108.873 296.91 109.115 296.559 109.3C296.207 109.486 295.793 109.578 295.316 109.578ZM303.049 107.968H300.027L299.47 109.509H298.516L301.021 102.62H302.065L304.56 109.509H303.605L303.049 107.968ZM302.79 107.233L301.538 103.734L300.285 107.233H302.79ZM309.915 102.581V103.316H308.027V109.509H307.122V103.316H305.224V102.581H309.915Z" fill="#2B2B36"/>
<g clip-path="url(#clip0_107_119)">
<path d="M41.8229 127.04V125.769H44.7018V136.841H43.293V127.04H41.8229Z" fill="#0D0D0D"/>
</g>
<path d="M82.431 135.723C83.7275 134.682 84.7433 133.829 85.4784 133.166C86.2134 132.492 86.831 131.793 87.3313 131.068C87.8417 130.333 88.097 129.613 88.097 128.909C88.097 128.245 87.9336 127.724 87.6069 127.347C87.2904 126.959 86.7749 126.765 86.0603 126.765C85.3661 126.765 84.825 126.984 84.4371 127.423C84.0593 127.852 83.8552 128.429 83.8245 129.154H82.4769C82.5178 128.01 82.8649 127.127 83.5183 126.504C84.1716 125.882 85.0139 125.57 86.045 125.57C87.0965 125.57 87.9285 125.861 88.541 126.443C89.1638 127.025 89.4752 127.826 89.4752 128.847C89.4752 129.695 89.2199 130.522 88.7095 131.328C88.2093 132.124 87.6376 132.829 86.9944 133.441C86.3512 134.044 85.5294 134.748 84.5289 135.554H89.7967V136.718H82.431V135.723Z" fill="#0D0D0D"/>
<path d="M125.939 128.556C126.011 127.617 126.373 126.882 127.027 126.351C127.68 125.82 128.527 125.555 129.569 125.555C130.263 125.555 130.86 125.682 131.36 125.938C131.871 126.183 132.254 126.52 132.509 126.948C132.774 127.377 132.907 127.862 132.907 128.403C132.907 129.036 132.723 129.582 132.356 130.042C131.998 130.501 131.529 130.797 130.947 130.93V131.006C131.611 131.17 132.136 131.491 132.524 131.971C132.912 132.451 133.106 133.079 133.106 133.855C133.106 134.437 132.973 134.962 132.708 135.432C132.443 135.891 132.044 136.254 131.514 136.519C130.983 136.785 130.345 136.917 129.599 136.917C128.517 136.917 127.629 136.637 126.935 136.075C126.241 135.503 125.853 134.697 125.771 133.656H127.119C127.19 134.268 127.44 134.768 127.869 135.156C128.298 135.544 128.869 135.738 129.584 135.738C130.299 135.738 130.84 135.554 131.207 135.187C131.585 134.809 131.774 134.324 131.774 133.732C131.774 132.967 131.519 132.415 131.008 132.078C130.498 131.741 129.727 131.573 128.696 131.573H128.344V130.409H128.711C129.65 130.399 130.36 130.246 130.84 129.95C131.32 129.644 131.559 129.174 131.559 128.541C131.559 128 131.381 127.566 131.024 127.239C130.676 126.913 130.176 126.749 129.523 126.749C128.89 126.749 128.379 126.913 127.991 127.239C127.604 127.566 127.374 128.005 127.302 128.556H125.939Z" fill="#0D0D0D"/>
<path d="M167.687 134.535V133.478L173.062 126.036H174.731V133.325H176.263V134.535H174.731V137H173.353V134.535H167.687ZM173.414 127.49L169.295 133.325H173.414V127.49Z" fill="#0D0D0D"/>
<path d="M217.452 127.138H212.077V130.63C212.312 130.303 212.659 130.038 213.118 129.833C213.578 129.619 214.073 129.512 214.604 129.512C215.451 129.512 216.14 129.69 216.671 130.048C217.202 130.395 217.58 130.849 217.804 131.411C218.039 131.962 218.156 132.549 218.156 133.172C218.156 133.907 218.019 134.565 217.743 135.147C217.467 135.729 217.044 136.188 216.472 136.525C215.91 136.862 215.211 137.031 214.374 137.031C213.302 137.031 212.434 136.755 211.771 136.204C211.107 135.652 210.704 134.917 210.561 133.999H211.924C212.057 134.58 212.337 135.035 212.766 135.361C213.195 135.688 213.736 135.851 214.389 135.851C215.196 135.851 215.803 135.612 216.212 135.132C216.62 134.642 216.824 133.999 216.824 133.202C216.824 132.406 216.62 131.793 216.212 131.365C215.803 130.926 215.201 130.706 214.405 130.706C213.863 130.706 213.389 130.839 212.98 131.104C212.582 131.36 212.291 131.712 212.108 132.161H210.791V125.913H217.452V127.138Z" fill="#0D0D0D"/>
<path d="M258.872 128.562C258.647 127.429 257.948 126.863 256.774 126.863C255.865 126.863 255.187 127.215 254.737 127.919C254.288 128.613 254.069 129.762 254.079 131.365C254.314 130.834 254.702 130.42 255.243 130.124C255.794 129.818 256.407 129.665 257.08 129.665C258.132 129.665 258.969 129.992 259.592 130.645C260.225 131.298 260.541 132.202 260.541 133.355C260.541 134.05 260.403 134.672 260.128 135.224C259.862 135.775 259.454 136.214 258.903 136.541C258.362 136.867 257.703 137.031 256.927 137.031C255.876 137.031 255.054 136.796 254.462 136.326C253.87 135.857 253.456 135.208 253.221 134.381C252.987 133.554 252.869 132.534 252.869 131.319C252.869 127.572 254.176 125.699 256.789 125.699C257.79 125.699 258.576 125.969 259.148 126.51C259.719 127.051 260.056 127.735 260.158 128.562H258.872ZM256.789 130.844C256.35 130.844 255.937 130.936 255.549 131.12C255.161 131.293 254.845 131.564 254.6 131.931C254.365 132.289 254.247 132.728 254.247 133.248C254.247 134.024 254.472 134.657 254.921 135.147C255.37 135.627 256.014 135.867 256.851 135.867C257.565 135.867 258.132 135.647 258.55 135.208C258.979 134.759 259.194 134.157 259.194 133.401C259.194 132.605 258.989 131.982 258.581 131.533C258.173 131.074 257.575 130.844 256.789 130.844Z" fill="#0D0D0D"/>
<path d="M302.556 127.016L298.299 137H296.89L301.209 127.154H295.298V125.959H302.556V127.016Z" fill="#0D0D0D"/>
<path d="M41.834 161.869C41.2623 161.644 40.8233 161.317 40.5171 160.889C40.2108 160.46 40.0577 159.939 40.0577 159.327C40.0577 158.775 40.1955 158.28 40.4711 157.841C40.7468 157.392 41.1551 157.04 41.6962 156.785C42.2475 156.519 42.9111 156.386 43.6869 156.386C44.4628 156.386 45.1213 156.519 45.6624 156.785C46.2136 157.04 46.6271 157.392 46.9027 157.841C47.1886 158.28 47.3315 158.775 47.3315 159.327C47.3315 159.919 47.1733 160.439 46.8568 160.889C46.5403 161.328 46.1064 161.654 45.5552 161.869C46.1881 162.063 46.6884 162.405 47.0559 162.895C47.4336 163.374 47.6225 163.956 47.6225 164.64C47.6225 165.304 47.4591 165.886 47.1324 166.386C46.8058 166.876 46.3413 167.259 45.7389 167.535C45.1468 167.8 44.4628 167.933 43.6869 167.933C42.9111 167.933 42.2271 167.8 41.6349 167.535C41.053 167.259 40.5987 166.876 40.2721 166.386C39.9454 165.886 39.782 165.304 39.782 164.64C39.782 163.956 39.9658 163.369 40.3333 162.879C40.7008 162.389 41.2011 162.052 41.834 161.869ZM45.9839 159.495C45.9839 158.872 45.7798 158.393 45.3714 158.056C44.9631 157.719 44.4016 157.55 43.6869 157.55C42.9825 157.55 42.4261 157.719 42.0178 158.056C41.6094 158.393 41.4052 158.877 41.4052 159.51C41.4052 160.082 41.6145 160.541 42.0331 160.889C42.4619 161.236 43.0132 161.409 43.6869 161.409C44.3709 161.409 44.9222 161.236 45.3408 160.889C45.7696 160.531 45.9839 160.067 45.9839 159.495ZM43.6869 162.481C42.9315 162.481 42.3138 162.66 41.834 163.017C41.3542 163.364 41.1143 163.89 41.1143 164.594C41.1143 165.248 41.344 165.774 41.8034 166.172C42.273 166.57 42.9009 166.769 43.6869 166.769C44.473 166.769 45.0958 166.57 45.5552 166.172C46.0146 165.774 46.2443 165.248 46.2443 164.594C46.2443 163.91 46.0095 163.39 45.5399 163.032C45.0702 162.665 44.4526 162.481 43.6869 162.481Z" fill="#0D0D0D"/>
<path d="M86.1811 164.656C86.2832 165.238 86.518 165.687 86.8856 166.003C87.2633 166.32 87.7686 166.478 88.4016 166.478C89.2489 166.478 89.8717 166.146 90.2698 165.483C90.6782 164.819 90.8721 163.701 90.8517 162.129C90.6373 162.588 90.28 162.951 89.7798 163.216C89.2795 163.471 88.7232 163.599 88.1106 163.599C87.4266 163.599 86.8141 163.461 86.273 163.186C85.7422 162.9 85.3236 162.486 85.0173 161.945C84.7111 161.404 84.5579 160.751 84.5579 159.985C84.5579 158.893 84.8744 158.015 85.5073 157.351C86.1403 156.677 87.0387 156.341 88.2025 156.341C89.6317 156.341 90.6322 156.805 91.2039 157.734C91.7858 158.663 92.0768 160.046 92.0768 161.884C92.0768 163.17 91.9594 164.232 91.7246 165.069C91.5 165.906 91.112 166.544 90.5608 166.983C90.0197 167.422 89.2744 167.642 88.325 167.642C87.2837 167.642 86.4721 167.361 85.8902 166.8C85.3083 166.238 84.9765 165.523 84.8948 164.656H86.1811ZM88.3403 162.42C89.0243 162.42 89.5858 162.211 90.0248 161.792C90.4638 161.363 90.6833 160.786 90.6833 160.062C90.6833 159.296 90.4689 158.678 90.0401 158.209C89.6113 157.739 89.009 157.504 88.2331 157.504C87.5185 157.504 86.9468 157.729 86.518 158.178C86.0995 158.627 85.8902 159.219 85.8902 159.954C85.8902 160.7 86.0995 161.297 86.518 161.746C86.9366 162.195 87.544 162.42 88.3403 162.42Z" fill="#0D0D0D"/>
<path d="M126.152 157.826V156.555H129.031V167.626H127.622V157.826H126.152ZM131.424 161.976C131.424 160.22 131.71 158.852 132.282 157.872C132.854 156.882 133.854 156.386 135.283 156.386C136.702 156.386 137.698 156.882 138.269 157.872C138.841 158.852 139.127 160.22 139.127 161.976C139.127 163.762 138.841 165.151 138.269 166.141C137.698 167.131 136.702 167.626 135.283 167.626C133.854 167.626 132.854 167.131 132.282 166.141C131.71 165.151 131.424 163.762 131.424 161.976ZM137.749 161.976C137.749 161.088 137.688 160.337 137.565 159.725C137.453 159.102 137.213 158.602 136.845 158.224C136.488 157.846 135.967 157.657 135.283 157.657C134.589 157.657 134.058 157.846 133.691 158.224C133.333 158.602 133.093 159.102 132.971 159.725C132.859 160.337 132.803 161.088 132.803 161.976C132.803 162.895 132.859 163.665 132.971 164.288C133.093 164.911 133.333 165.411 133.691 165.789C134.058 166.167 134.589 166.355 135.283 166.355C135.967 166.355 136.488 166.167 136.845 165.789C137.213 165.411 137.453 164.911 137.565 164.288C137.688 163.665 137.749 162.895 137.749 161.976Z" fill="#0D0D0D"/>
<path d="M167.567 157.697V156.426H170.446V167.498H169.037V157.697H167.567ZM172.472 157.697V156.426H175.351V167.498H173.942V157.697H172.472Z" fill="#0D0D0D"/>
<path d="M210.185 157.697V156.426H213.064V167.498H211.655V157.697H210.185ZM215.289 166.38C216.586 165.338 217.602 164.486 218.337 163.822C219.072 163.149 219.689 162.449 220.19 161.724C220.7 160.989 220.955 160.27 220.955 159.565C220.955 158.902 220.792 158.381 220.465 158.003C220.149 157.615 219.633 157.421 218.919 157.421C218.224 157.421 217.683 157.641 217.295 158.08C216.918 158.509 216.713 159.085 216.683 159.81H215.335C215.376 158.667 215.723 157.784 216.377 157.161C217.03 156.538 217.872 156.227 218.903 156.227C219.955 156.227 220.787 156.518 221.399 157.1C222.022 157.682 222.333 158.483 222.333 159.504C222.333 160.351 222.078 161.178 221.568 161.985C221.068 162.781 220.496 163.485 219.853 164.098C219.21 164.7 218.388 165.405 217.387 166.211H222.655V167.375H215.289V166.38Z" fill="#0D0D0D"/>
<path d="M254.65 157.697V156.426H257.529V167.498H256.12V157.697H254.65ZM259.892 159.213C259.963 158.274 260.326 157.539 260.979 157.008C261.632 156.477 262.48 156.212 263.521 156.212C264.215 156.212 264.812 156.339 265.313 156.594C265.823 156.839 266.206 157.176 266.461 157.605C266.727 158.034 266.859 158.519 266.859 159.06C266.859 159.693 266.676 160.239 266.308 160.698C265.951 161.158 265.481 161.454 264.899 161.587V161.663C265.563 161.827 266.089 162.148 266.477 162.628C266.864 163.108 267.058 163.736 267.058 164.511C267.058 165.093 266.926 165.619 266.66 166.089C266.395 166.548 265.997 166.911 265.466 167.176C264.935 167.441 264.297 167.574 263.552 167.574C262.47 167.574 261.581 167.293 260.887 166.732C260.193 166.16 259.805 165.354 259.723 164.312H261.071C261.142 164.925 261.392 165.425 261.821 165.813C262.25 166.201 262.822 166.395 263.536 166.395C264.251 166.395 264.792 166.211 265.16 165.844C265.537 165.466 265.726 164.981 265.726 164.389C265.726 163.623 265.471 163.072 264.96 162.735C264.45 162.398 263.679 162.23 262.648 162.23H262.296V161.066H262.663C263.603 161.056 264.312 160.903 264.792 160.607C265.272 160.3 265.512 159.831 265.512 159.198C265.512 158.657 265.333 158.223 264.976 157.896C264.629 157.569 264.128 157.406 263.475 157.406C262.842 157.406 262.332 157.569 261.944 157.896C261.556 158.223 261.326 158.662 261.255 159.213H259.892Z" fill="#0D0D0D"/>
<path d="M293.16 157.915V156.644H296.039V167.717H294.63V157.915H293.16ZM298.096 165.251V164.194L303.472 156.751H305.142V164.041H306.673V165.251H305.142V167.717H303.763V165.251H298.096ZM303.824 158.206L299.705 164.041H303.824V158.206Z" fill="#0D0D0D"/>
<ellipse cx="89.1807" cy="264.5" rx="3.34426" ry="2.5" fill="#749D1C"/>
<path d="M37.015 188.612V187.341H39.894V198.412H38.4851V188.612H37.015ZM49.3471 188.55H43.9721V192.042C44.2069 191.715 44.554 191.45 45.0134 191.245C45.4728 191.031 45.9679 190.924 46.4988 190.924C47.3461 190.924 48.0352 191.103 48.5661 191.46C49.097 191.807 49.4747 192.261 49.6993 192.823C49.9341 193.374 50.0515 193.961 50.0515 194.584C50.0515 195.319 49.9137 195.977 49.638 196.559C49.3624 197.141 48.9387 197.601 48.367 197.937C47.8055 198.274 47.1062 198.443 46.2691 198.443C45.1972 198.443 44.3294 198.167 43.6658 197.616C43.0022 197.065 42.599 196.329 42.4561 195.411H43.819C43.9517 195.993 44.2324 196.447 44.6612 196.774C45.09 197.1 45.631 197.264 46.2844 197.264C47.0909 197.264 47.6983 197.024 48.1067 196.544C48.5151 196.054 48.7192 195.411 48.7192 194.614C48.7192 193.818 48.5151 193.206 48.1067 192.777C47.6983 192.338 47.096 192.118 46.2997 192.118C45.7586 192.118 45.2839 192.251 44.8756 192.516C44.4774 192.772 44.1865 193.124 44.0027 193.573H42.6858V187.325H49.3471V188.55Z" fill="#0D0D0D"/>
<path d="M81.5333 188.612V187.341H84.4122V198.412H83.0033V188.612H81.5333ZM92.9771 189.974C92.7525 188.841 92.0532 188.275 90.8792 188.275C89.9706 188.275 89.2917 188.627 88.8425 189.331C88.3933 190.025 88.1738 191.174 88.184 192.777C88.4188 192.246 88.8068 191.832 89.3479 191.536C89.8991 191.23 90.5117 191.077 91.1855 191.077C92.237 191.077 93.0741 191.404 93.6968 192.057C94.3298 192.71 94.6463 193.614 94.6463 194.768C94.6463 195.462 94.5085 196.084 94.2328 196.636C93.9674 197.187 93.559 197.626 93.0077 197.953C92.4667 198.279 91.8082 198.443 91.0323 198.443C89.9808 198.443 89.159 198.208 88.5669 197.738C87.9748 197.269 87.5613 196.62 87.3265 195.794C87.0917 194.967 86.9743 193.946 86.9743 192.731C86.9743 188.984 88.281 187.111 90.8945 187.111C91.895 187.111 92.6811 187.381 93.2528 187.922C93.8245 188.464 94.1614 189.148 94.2634 189.974H92.9771ZM90.8945 192.256C90.4555 192.256 90.0421 192.348 89.6541 192.532C89.2662 192.705 88.9497 192.976 88.7047 193.343C88.4699 193.701 88.3525 194.14 88.3525 194.66C88.3525 195.436 88.5771 196.069 89.0263 196.559C89.4755 197.039 90.1186 197.279 90.9558 197.279C91.6704 197.279 92.237 197.059 92.6555 196.62C93.0843 196.171 93.2987 195.569 93.2987 194.813C93.2987 194.017 93.0945 193.394 92.6862 192.945C92.2778 192.486 91.6806 192.256 90.8945 192.256Z" fill="#0D0D0D"/>
<path d="M126.156 187.755V186.484H129.035V197.557H127.626V187.755H126.156ZM138.244 187.571L133.987 197.557H132.578L136.897 187.709H130.985V186.514H138.244V187.571Z" fill="#0D0D0D"/>
<path d="M165.189 188.199V186.928H168.068V198H166.659V188.199H165.189ZM172.483 192.242C171.911 192.018 171.472 191.691 171.166 191.262C170.86 190.833 170.707 190.313 170.707 189.7C170.707 189.149 170.845 188.654 171.12 188.215C171.396 187.766 171.804 187.413 172.345 187.158C172.897 186.893 173.56 186.76 174.336 186.76C175.112 186.76 175.77 186.893 176.311 187.158C176.863 187.413 177.276 187.766 177.552 188.215C177.838 188.654 177.981 189.149 177.981 189.7C177.981 190.292 177.822 190.813 177.506 191.262C177.189 191.701 176.756 192.028 176.204 192.242C176.837 192.436 177.337 192.778 177.705 193.268C178.083 193.748 178.272 194.33 178.272 195.014C178.272 195.677 178.108 196.259 177.782 196.76C177.455 197.25 176.99 197.632 176.388 197.908C175.796 198.174 175.112 198.306 174.336 198.306C173.56 198.306 172.876 198.174 172.284 197.908C171.702 197.632 171.248 197.25 170.921 196.76C170.594 196.259 170.431 195.677 170.431 195.014C170.431 194.33 170.615 193.743 170.982 193.253C171.35 192.763 171.85 192.426 172.483 192.242ZM176.633 189.869C176.633 189.246 176.429 188.766 176.02 188.429C175.612 188.092 175.051 187.924 174.336 187.924C173.632 187.924 173.075 188.092 172.667 188.429C172.258 188.766 172.054 189.251 172.054 189.884C172.054 190.456 172.264 190.915 172.682 191.262C173.111 191.609 173.662 191.783 174.336 191.783C175.02 191.783 175.571 191.609 175.99 191.262C176.419 190.905 176.633 190.44 176.633 189.869ZM174.336 192.855C173.581 192.855 172.963 193.033 172.483 193.391C172.003 193.738 171.763 194.264 171.763 194.968C171.763 195.621 171.993 196.147 172.452 196.545C172.922 196.943 173.55 197.142 174.336 197.142C175.122 197.142 175.745 196.943 176.204 196.545C176.664 196.147 176.893 195.621 176.893 194.968C176.893 194.284 176.659 193.763 176.189 193.406C175.719 193.038 175.102 192.855 174.336 192.855Z" fill="#0D0D0D"/>
<path d="M209.766 188.199V186.928H212.645V198H211.237V188.199H209.766ZM216.831 195.029C216.933 195.611 217.168 196.06 217.535 196.377C217.913 196.693 218.418 196.851 219.051 196.851C219.898 196.851 220.521 196.52 220.919 195.856C221.328 195.193 221.522 194.075 221.501 192.503C221.287 192.962 220.93 193.324 220.429 193.59C219.929 193.845 219.373 193.973 218.76 193.973C218.076 193.973 217.464 193.835 216.923 193.559C216.392 193.273 215.973 192.86 215.667 192.319C215.361 191.778 215.207 191.124 215.207 190.359C215.207 189.266 215.524 188.388 216.157 187.725C216.79 187.051 217.688 186.714 218.852 186.714C220.281 186.714 221.282 187.179 221.853 188.108C222.435 189.037 222.726 190.42 222.726 192.257C222.726 193.544 222.609 194.606 222.374 195.443C222.15 196.28 221.762 196.918 221.21 197.357C220.669 197.796 219.924 198.015 218.975 198.015C217.933 198.015 217.122 197.735 216.54 197.173C215.958 196.612 215.626 195.897 215.544 195.029H216.831ZM218.99 192.793C219.674 192.793 220.235 192.584 220.674 192.166C221.113 191.737 221.333 191.16 221.333 190.435C221.333 189.67 221.118 189.052 220.69 188.582C220.261 188.113 219.659 187.878 218.883 187.878C218.168 187.878 217.596 188.102 217.168 188.552C216.749 189.001 216.54 189.593 216.54 190.328C216.54 191.073 216.749 191.67 217.168 192.12C217.586 192.569 218.194 192.793 218.99 192.793Z" fill="#0D0D0D"/>
<path d="M252.598 196.882C253.895 195.841 254.911 194.988 255.646 194.325C256.381 193.651 256.998 192.952 257.499 192.227C258.009 191.492 258.264 190.772 258.264 190.068C258.264 189.404 258.101 188.883 257.774 188.506C257.458 188.118 256.942 187.924 256.228 187.924C255.533 187.924 254.992 188.143 254.604 188.582C254.227 189.011 254.022 189.588 253.992 190.313H252.644C252.685 189.169 253.032 188.286 253.685 187.663C254.339 187.041 255.181 186.729 256.212 186.729C257.264 186.729 258.096 187.02 258.708 187.602C259.331 188.184 259.642 188.986 259.642 190.006C259.642 190.854 259.387 191.681 258.877 192.487C258.376 193.283 257.805 193.988 257.162 194.6C256.518 195.203 255.697 195.907 254.696 196.714H259.964V197.877H252.598V196.882ZM261.575 192.349C261.575 190.593 261.861 189.225 262.432 188.245C263.004 187.255 264.005 186.76 265.434 186.76C266.853 186.76 267.848 187.255 268.42 188.245C268.992 189.225 269.277 190.593 269.277 192.349C269.277 194.136 268.992 195.524 268.42 196.515C267.848 197.505 266.853 198 265.434 198C264.005 198 263.004 197.505 262.432 196.515C261.861 195.524 261.575 194.136 261.575 192.349ZM267.899 192.349C267.899 191.461 267.838 190.711 267.716 190.098C267.603 189.476 267.363 188.975 266.996 188.598C266.638 188.22 266.118 188.031 265.434 188.031C264.74 188.031 264.209 188.22 263.841 188.598C263.484 188.975 263.244 189.476 263.122 190.098C263.009 190.711 262.953 191.461 262.953 192.349C262.953 193.268 263.009 194.039 263.122 194.662C263.244 195.284 263.484 195.785 263.841 196.162C264.209 196.54 264.74 196.729 265.434 196.729C266.118 196.729 266.638 196.54 266.996 196.162C267.363 195.785 267.603 195.284 267.716 194.662C267.838 194.039 267.899 193.268 267.899 192.349Z" fill="#0D0D0D"/>
<path d="M294.011 196.882C295.308 195.841 296.324 194.988 297.059 194.325C297.794 193.651 298.411 192.952 298.911 192.227C299.422 191.492 299.677 190.772 299.677 190.068C299.677 189.404 299.514 188.883 299.187 188.506C298.871 188.118 298.355 187.924 297.64 187.924C296.946 187.924 296.405 188.143 296.017 188.582C295.64 189.011 295.435 189.588 295.405 190.313H294.057C294.098 189.169 294.445 188.286 295.098 187.663C295.752 187.041 296.594 186.729 297.625 186.729C298.677 186.729 299.509 187.02 300.121 187.602C300.744 188.184 301.055 188.986 301.055 190.006C301.055 190.854 300.8 191.681 300.29 192.487C299.789 193.283 299.218 193.988 298.575 194.6C297.931 195.203 297.11 195.907 296.109 196.714H301.377V197.877H294.011V196.882ZM302.62 188.199V186.928H305.499V198H304.09V188.199H302.62Z" fill="#0D0D0D"/>
<path d="M36.7811 228.079C38.0776 227.038 39.0934 226.186 39.8284 225.522C40.5635 224.848 41.1811 224.149 41.6813 223.424C42.1918 222.689 42.447 221.969 42.447 221.265C42.447 220.601 42.2837 220.081 41.957 219.703C41.6405 219.315 41.125 219.121 40.4103 219.121C39.7161 219.121 39.1751 219.341 38.7871 219.78C38.4094 220.208 38.2052 220.785 38.1746 221.51H36.827C36.8678 220.367 37.215 219.483 37.8683 218.861C38.5217 218.238 39.3639 217.927 40.395 217.927C41.4465 217.927 42.2786 218.218 42.8911 218.799C43.5138 219.381 43.8252 220.183 43.8252 221.204C43.8252 222.051 43.57 222.878 43.0596 223.684C42.5593 224.481 41.9876 225.185 41.3445 225.798C40.7013 226.4 39.8795 227.104 38.879 227.911H44.1468V229.075H36.7811V228.079ZM45.5892 228.079C46.8858 227.038 47.9016 226.186 48.6366 225.522C49.3716 224.848 49.9893 224.149 50.4895 223.424C51 222.689 51.2552 221.969 51.2552 221.265C51.2552 220.601 51.0918 220.081 50.7652 219.703C50.4487 219.315 49.9331 219.121 49.2185 219.121C48.5243 219.121 47.9832 219.341 47.5953 219.78C47.2176 220.208 47.0134 220.785 46.9828 221.51H45.6352C45.676 220.367 46.0231 219.483 46.6765 218.861C47.3299 218.238 48.1721 217.927 49.2032 217.927C50.2547 217.927 51.0867 218.218 51.6993 218.799C52.322 219.381 52.6334 220.183 52.6334 221.204C52.6334 222.051 52.3782 222.878 51.8677 223.684C51.3675 224.481 50.7958 225.185 50.1526 225.798C49.5095 226.4 48.6876 227.104 47.6872 227.911H52.955V229.075H45.5892V228.079Z" fill="#0D0D0D"/>
<path d="M81.2469 228.079C82.5435 227.038 83.5593 226.186 84.2943 225.522C85.0293 224.848 85.647 224.149 86.1472 223.424C86.6577 222.689 86.9129 221.969 86.9129 221.265C86.9129 220.601 86.7495 220.081 86.4229 219.703C86.1064 219.315 85.5908 219.121 84.8762 219.121C84.182 219.121 83.6409 219.341 83.253 219.78C82.8753 220.208 82.6711 220.785 82.6405 221.51H81.2929C81.3337 220.367 81.6808 219.483 82.3342 218.861C82.9876 218.238 83.8298 217.927 84.8609 217.927C85.9124 217.927 86.7444 218.218 87.357 218.799C87.9797 219.381 88.2911 220.183 88.2911 221.204C88.2911 222.051 88.0359 222.878 87.5254 223.684C87.0252 224.481 86.4535 225.185 85.8103 225.798C85.1672 226.4 84.3454 227.104 83.3449 227.911H88.6127V229.075H81.2469V228.079ZM90.1929 220.913C90.2644 219.974 90.6268 219.238 91.2802 218.708C91.9336 218.177 92.7809 217.911 93.8222 217.911C94.5164 217.911 95.1136 218.039 95.6139 218.294C96.1243 218.539 96.5072 218.876 96.7624 219.305C97.0278 219.734 97.1605 220.219 97.1605 220.76C97.1605 221.393 96.9768 221.939 96.6092 222.398C96.2519 222.858 95.7823 223.154 95.2004 223.286V223.363C95.864 223.526 96.3897 223.848 96.7777 224.328C97.1656 224.807 97.3596 225.435 97.3596 226.211C97.3596 226.793 97.2269 227.319 96.9614 227.788C96.696 228.248 96.2979 228.61 95.767 228.876C95.2361 229.141 94.5981 229.274 93.8528 229.274C92.7707 229.274 91.8825 228.993 91.1883 228.432C90.4941 227.86 90.1062 227.053 90.0245 226.012H91.3721C91.4435 226.625 91.6937 227.125 92.1224 227.513C92.5512 227.901 93.1229 228.095 93.8375 228.095C94.5521 228.095 95.0932 227.911 95.4607 227.543C95.8385 227.166 96.0273 226.681 96.0273 226.089C96.0273 225.323 95.7721 224.772 95.2617 224.435C94.7512 224.098 93.9804 223.929 92.9493 223.929H92.5971V222.766H92.9647C93.9039 222.755 94.6134 222.602 95.0932 222.306C95.573 222 95.8129 221.53 95.8129 220.897C95.8129 220.356 95.6343 219.922 95.277 219.596C94.9299 219.269 94.4296 219.106 93.7763 219.106C93.1433 219.106 92.6329 219.269 92.2449 219.596C91.857 219.922 91.6273 220.361 91.5558 220.913H90.1929Z" fill="#0D0D0D"/>
<path d="M125.507 228.08C126.803 227.039 127.819 226.186 128.554 225.523C129.289 224.849 129.907 224.149 130.407 223.425C130.917 222.69 131.172 221.97 131.172 221.265C131.172 220.602 131.009 220.081 130.682 219.703C130.366 219.316 129.85 219.122 129.136 219.122C128.442 219.122 127.901 219.341 127.513 219.78C127.135 220.209 126.931 220.786 126.9 221.51H125.552C125.593 220.367 125.94 219.484 126.594 218.861C127.247 218.238 128.089 217.927 129.12 217.927C130.172 217.927 131.004 218.218 131.617 218.8C132.239 219.382 132.551 220.183 132.551 221.204C132.551 222.052 132.295 222.878 131.785 223.685C131.285 224.481 130.713 225.186 130.07 225.798C129.427 226.401 128.605 227.105 127.604 227.911H132.872V229.075H125.507V228.08ZM134.146 226.732V225.676L139.521 218.233H141.19V225.523H142.722V226.732H141.19V229.198H139.812V226.732H134.146ZM139.873 219.688L135.754 225.523H139.873V219.688Z" fill="#0D0D0D"/>
<path d="M164.574 227.882C165.87 226.841 166.886 225.988 167.621 225.325C168.356 224.651 168.974 223.952 169.474 223.227C169.985 222.492 170.24 221.772 170.24 221.068C170.24 220.404 170.076 219.883 169.75 219.506C169.433 219.118 168.918 218.924 168.203 218.924C167.509 218.924 166.968 219.143 166.58 219.582C166.202 220.011 165.998 220.588 165.967 221.313H164.62C164.661 220.169 165.008 219.286 165.661 218.663C166.314 218.041 167.157 217.729 168.188 217.729C169.239 217.729 170.071 218.02 170.684 218.602C171.307 219.184 171.618 219.986 171.618 221.006C171.618 221.854 171.363 222.681 170.852 223.487C170.352 224.283 169.78 224.988 169.137 225.6C168.494 226.203 167.672 226.907 166.672 227.714H171.94V228.877H164.574V227.882ZM180.61 219.138H175.235V222.63C175.47 222.303 175.817 222.038 176.276 221.833C176.736 221.619 177.231 221.512 177.762 221.512C178.609 221.512 179.298 221.69 179.829 222.048C180.36 222.395 180.738 222.849 180.962 223.411C181.197 223.962 181.314 224.549 181.314 225.172C181.314 225.907 181.177 226.565 180.901 227.147C180.625 227.729 180.202 228.188 179.63 228.525C179.068 228.862 178.369 229.031 177.532 229.031C176.46 229.031 175.592 228.755 174.929 228.204C174.265 227.652 173.862 226.917 173.719 225.999H175.082C175.215 226.58 175.495 227.035 175.924 227.361C176.353 227.688 176.894 227.851 177.547 227.851C178.354 227.851 178.961 227.612 179.37 227.132C179.778 226.642 179.982 225.999 179.982 225.202C179.982 224.406 179.778 223.793 179.37 223.365C178.961 222.926 178.359 222.706 177.563 222.706C177.021 222.706 176.547 222.839 176.138 223.104C175.74 223.36 175.449 223.712 175.266 224.161H173.949V217.913H180.61V219.138Z" fill="#0D0D0D"/>
<path d="M209.091 227.882C210.388 226.841 211.403 225.988 212.138 225.325C212.873 224.651 213.491 223.952 213.991 223.227C214.502 222.492 214.757 221.772 214.757 221.068C214.757 220.404 214.594 219.883 214.267 219.506C213.951 219.118 213.435 218.924 212.72 218.924C212.026 218.924 211.485 219.143 211.097 219.582C210.719 220.011 210.515 220.588 210.485 221.313H209.137C209.178 220.169 209.525 219.286 210.178 218.663C210.832 218.041 211.674 217.729 212.705 217.729C213.757 217.729 214.589 218.02 215.201 218.602C215.824 219.184 216.135 219.986 216.135 221.006C216.135 221.854 215.88 222.681 215.37 223.487C214.869 224.283 214.298 224.988 213.654 225.6C213.011 226.203 212.189 226.907 211.189 227.714H216.457V228.877H209.091V227.882ZM224.239 220.562C224.014 219.429 223.315 218.863 222.141 218.863C221.232 218.863 220.554 219.215 220.104 219.919C219.655 220.613 219.436 221.762 219.446 223.365C219.681 222.834 220.069 222.42 220.61 222.124C221.161 221.818 221.774 221.665 222.447 221.665C223.499 221.665 224.336 221.992 224.959 222.645C225.592 223.298 225.908 224.202 225.908 225.355C225.908 226.05 225.77 226.672 225.495 227.224C225.229 227.775 224.821 228.214 224.27 228.541C223.729 228.867 223.07 229.031 222.294 229.031C221.243 229.031 220.421 228.796 219.829 228.326C219.237 227.857 218.823 227.208 218.588 226.381C218.354 225.554 218.236 224.534 218.236 223.319C218.236 219.572 219.543 217.699 222.156 217.699C223.157 217.699 223.943 217.969 224.515 218.51C225.086 219.051 225.423 219.735 225.525 220.562H224.239ZM222.156 222.844C221.717 222.844 221.304 222.936 220.916 223.12C220.528 223.293 220.212 223.564 219.967 223.931C219.732 224.289 219.614 224.728 219.614 225.248C219.614 226.024 219.839 226.657 220.288 227.147C220.737 227.627 221.38 227.867 222.218 227.867C222.932 227.867 223.499 227.647 223.917 227.208C224.346 226.759 224.561 226.157 224.561 225.401C224.561 224.605 224.356 223.982 223.948 223.533C223.54 223.074 222.942 222.844 222.156 222.844Z" fill="#0D0D0D"/>
<path d="M254.341 227.882C255.638 226.841 256.653 225.988 257.388 225.325C258.123 224.651 258.741 223.952 259.241 223.227C259.752 222.492 260.007 221.772 260.007 221.068C260.007 220.404 259.844 219.883 259.517 219.506C259.201 219.118 258.685 218.924 257.97 218.924C257.276 218.924 256.735 219.143 256.347 219.582C255.969 220.011 255.765 220.588 255.735 221.313H254.387C254.428 220.169 254.775 219.286 255.428 218.663C256.082 218.041 256.924 217.729 257.955 217.729C259.007 217.729 259.839 218.02 260.451 218.602C261.074 219.184 261.385 219.986 261.385 221.006C261.385 221.854 261.13 222.681 260.62 223.487C260.119 224.283 259.548 224.988 258.904 225.6C258.261 226.203 257.439 226.907 256.439 227.714H261.707V228.877H254.341V227.882ZM270.132 219.016L265.875 229H264.466L268.785 219.154H262.874V217.959H270.132V219.016Z" fill="#0D0D0D"/>
<path d="M291.633 227.882C292.93 226.841 293.946 225.988 294.681 225.325C295.416 224.651 296.033 223.952 296.534 223.227C297.044 222.492 297.299 221.772 297.299 221.068C297.299 220.404 297.136 219.883 296.809 219.506C296.493 219.118 295.977 218.924 295.263 218.924C294.568 218.924 294.027 219.143 293.639 219.582C293.262 220.011 293.058 220.588 293.027 221.313H291.679C291.72 220.169 292.067 219.286 292.721 218.663C293.374 218.041 294.216 217.729 295.247 217.729C296.299 217.729 297.131 218.02 297.743 218.602C298.366 219.184 298.678 219.986 298.678 221.006C298.678 221.854 298.422 222.681 297.912 223.487C297.412 224.283 296.84 224.988 296.197 225.6C295.554 226.203 294.732 226.907 293.731 227.714H298.999V228.877H291.633V227.882ZM302.631 223.242C302.06 223.018 301.621 222.691 301.314 222.262C301.008 221.833 300.855 221.313 300.855 220.7C300.855 220.149 300.993 219.654 301.269 219.215C301.544 218.766 301.953 218.413 302.494 218.158C303.045 217.893 303.708 217.76 304.484 217.76C305.26 217.76 305.919 217.893 306.46 218.158C307.011 218.413 307.425 218.766 307.7 219.215C307.986 219.654 308.129 220.149 308.129 220.7C308.129 221.292 307.971 221.813 307.654 222.262C307.338 222.701 306.904 223.028 306.353 223.242C306.986 223.436 307.486 223.778 307.853 224.268C308.231 224.748 308.42 225.33 308.42 226.014C308.42 226.677 308.257 227.259 307.93 227.76C307.603 228.25 307.139 228.632 306.536 228.908C305.944 229.174 305.26 229.306 304.484 229.306C303.708 229.306 303.024 229.174 302.432 228.908C301.85 228.632 301.396 228.25 301.069 227.76C300.743 227.259 300.579 226.677 300.579 226.014C300.579 225.33 300.763 224.743 301.131 224.253C301.498 223.763 301.998 223.426 302.631 223.242ZM306.781 220.869C306.781 220.246 306.577 219.766 306.169 219.429C305.76 219.092 305.199 218.924 304.484 218.924C303.78 218.924 303.224 219.092 302.815 219.429C302.407 219.766 302.203 220.251 302.203 220.884C302.203 221.456 302.412 221.915 302.83 222.262C303.259 222.609 303.811 222.783 304.484 222.783C305.168 222.783 305.72 222.609 306.138 222.262C306.567 221.905 306.781 221.44 306.781 220.869ZM304.484 223.855C303.729 223.855 303.111 224.033 302.631 224.391C302.152 224.738 301.912 225.264 301.912 225.968C301.912 226.621 302.141 227.147 302.601 227.545C303.07 227.943 303.698 228.142 304.484 228.142C305.27 228.142 305.893 227.943 306.353 227.545C306.812 227.147 307.042 226.621 307.042 225.968C307.042 225.284 306.807 224.763 306.337 224.406C305.868 224.038 305.25 223.855 304.484 223.855Z" fill="#0D0D0D"/>
<path d="M36.3623 258.866C37.6589 257.824 38.6747 256.972 39.4097 256.308C40.1447 255.634 40.7624 254.935 41.2626 254.21C41.7731 253.475 42.0283 252.755 42.0283 252.051C42.0283 251.387 41.865 250.867 41.5383 250.489C41.2218 250.101 40.7062 249.907 39.9916 249.907C39.2974 249.907 38.7563 250.127 38.3684 250.566C37.9907 250.994 37.7865 251.571 37.7559 252.296H36.4083C36.4491 251.153 36.7962 250.27 37.4496 249.647C38.103 249.024 38.9452 248.713 39.9763 248.713C41.0278 248.713 41.8598 249.004 42.4724 249.586C43.0951 250.168 43.4065 250.969 43.4065 251.99C43.4065 252.837 43.1513 253.664 42.6408 254.471C42.1406 255.267 41.5689 255.971 40.9257 256.584C40.2826 257.186 39.4608 257.891 38.4603 258.697H43.7281V259.861H36.3623V258.866ZM47.1306 257.013C47.2327 257.595 47.4675 258.044 47.835 258.36C48.2128 258.677 48.7181 258.835 49.3511 258.835C50.1984 258.835 50.8212 258.503 51.2193 257.84C51.6277 257.176 51.8216 256.058 51.8012 254.486C51.5868 254.945 51.2295 255.308 50.7293 255.573C50.229 255.828 49.6726 255.956 49.0601 255.956C48.3761 255.956 47.7636 255.818 47.2225 255.543C46.6916 255.257 46.2731 254.843 45.9668 254.302C45.6605 253.761 45.5074 253.108 45.5074 252.342C45.5074 251.25 45.8239 250.372 46.4568 249.708C47.0898 249.034 47.9882 248.697 49.152 248.697C50.5812 248.697 51.5817 249.162 52.1534 250.091C52.7353 251.02 53.0263 252.403 53.0263 254.241C53.0263 255.527 52.9089 256.589 52.6741 257.426C52.4495 258.263 52.0615 258.901 51.5103 259.34C50.9692 259.779 50.2239 259.999 49.2745 259.999C48.2332 259.999 47.4216 259.718 46.8397 259.156C46.2578 258.595 45.926 257.88 45.8443 257.013H47.1306ZM49.2898 254.777C49.9738 254.777 50.5353 254.568 50.9743 254.149C51.4133 253.72 51.6328 253.143 51.6328 252.419C51.6328 251.653 51.4184 251.035 50.9896 250.566C50.5608 250.096 49.9585 249.861 49.1826 249.861C48.468 249.861 47.8963 250.086 47.4675 250.535C47.049 250.984 46.8397 251.576 46.8397 252.311C46.8397 253.057 47.049 253.654 47.4675 254.103C47.8861 254.552 48.4935 254.777 49.2898 254.777Z" fill="#0D0D0D"/>
<path d="M80.9798 251.699C81.0512 250.76 81.4137 250.025 82.067 249.494C82.7204 248.963 83.5677 248.697 84.609 248.697C85.3033 248.697 85.9005 248.825 86.4007 249.08C86.9112 249.325 87.294 249.662 87.5492 250.091C87.8146 250.52 87.9474 251.005 87.9474 251.546C87.9474 252.179 87.7636 252.725 87.3961 253.184C87.0388 253.644 86.5692 253.94 85.9872 254.072V254.149C86.6508 254.312 87.1766 254.634 87.5645 255.114C87.9525 255.594 88.1464 256.221 88.1464 256.997C88.1464 257.579 88.0137 258.105 87.7483 258.575C87.4829 259.034 87.0847 259.396 86.5538 259.662C86.023 259.927 85.3849 260.06 84.6397 260.06C83.5575 260.06 82.6694 259.779 81.9751 259.218C81.2809 258.646 80.893 257.84 80.8113 256.798H82.1589C82.2304 257.411 82.4805 257.911 82.9093 258.299C83.338 258.687 83.9097 258.881 84.6244 258.881C85.339 258.881 85.8801 258.697 86.2476 258.33C86.6253 257.952 86.8142 257.467 86.8142 256.875C86.8142 256.109 86.5589 255.558 86.0485 255.221C85.5381 254.884 84.7673 254.716 83.7362 254.716H83.384V253.552H83.7515C84.6907 253.542 85.4002 253.388 85.8801 253.092C86.3599 252.786 86.5998 252.317 86.5998 251.684C86.5998 251.142 86.4211 250.709 86.0638 250.382C85.7167 250.055 85.2165 249.892 84.5631 249.892C83.9302 249.892 83.4197 250.055 83.0318 250.382C82.6438 250.709 82.4141 251.148 82.3427 251.699H80.9798ZM90.0279 254.333C90.0279 252.577 90.3138 251.209 90.8855 250.229C91.4572 249.239 92.4577 248.743 93.8869 248.743C95.3059 248.743 96.3013 249.239 96.873 250.229C97.4447 251.209 97.7306 252.577 97.7306 254.333C97.7306 256.119 97.4447 257.508 96.873 258.498C96.3013 259.488 95.3059 259.983 93.8869 259.983C92.4577 259.983 91.4572 259.488 90.8855 258.498C90.3138 257.508 90.0279 256.119 90.0279 254.333ZM96.3524 254.333C96.3524 253.445 96.2911 252.694 96.1686 252.082C96.0563 251.459 95.8164 250.959 95.4489 250.581C95.0916 250.203 94.5709 250.014 93.8869 250.014C93.1927 250.014 92.6618 250.203 92.2943 250.581C91.937 250.959 91.6971 251.459 91.5746 252.082C91.4623 252.694 91.4061 253.445 91.4061 254.333C91.4061 255.252 91.4623 256.022 91.5746 256.645C91.6971 257.268 91.937 257.768 92.2943 258.146C92.6618 258.524 93.1927 258.712 93.8869 258.712C94.5709 258.712 95.0916 258.524 95.4489 258.146C95.8164 257.768 96.0563 257.268 96.1686 256.645C96.2911 256.022 96.3524 255.252 96.3524 254.333Z" fill="#0D0D0D"/>
<path d="M23.9138 37.2269C23.3669 37.2269 23.0935 36.934 23.0935 36.348V21.3011C23.0935 20.7152 23.3669 20.4222 23.9138 20.4222H28.2966C31.1091 20.4222 33.0583 20.8793 34.1443 21.7933C35.238 22.7074 35.7849 24.0043 35.7849 25.684C35.7849 27.3636 35.238 28.6605 34.1443 29.5746C33.0583 30.4886 31.1091 30.9457 28.2966 30.9457H26.5154V36.348C26.5154 36.934 26.2419 37.2269 25.6951 37.2269H23.9138ZM26.5154 28.0863H28.2849C29.8474 28.0863 30.9099 27.9027 31.4724 27.5355C32.0349 27.1605 32.3162 26.5433 32.3162 25.684C32.3162 24.8246 32.0349 24.2113 31.4724 23.8441C30.9099 23.4691 29.8474 23.2816 28.2849 23.2816H26.5154V28.0863ZM39.0779 37.2269C38.6091 37.2269 38.3748 36.9926 38.3748 36.5238V25.6254C38.3748 25.1566 38.6091 24.9222 39.0779 24.9222H40.9294C41.3982 24.9222 41.6326 25.1566 41.6326 25.6254V26.5863H41.6794C41.8826 26.0863 42.2224 25.6449 42.699 25.2621C43.1755 24.8793 43.738 24.6879 44.3865 24.6879C44.8318 24.6879 45.199 24.7426 45.488 24.8519C45.7615 24.9535 45.8669 25.141 45.8044 25.4144L45.4763 26.809C45.406 27.1215 45.1951 27.2152 44.8435 27.0902C44.6404 27.0199 44.4451 26.9847 44.2576 26.9847C43.5076 26.9847 42.8865 27.434 42.3943 28.3324C41.9021 29.2308 41.656 30.5394 41.656 32.2582V36.5238C41.656 36.9926 41.4216 37.2269 40.9529 37.2269H39.0779ZM46.9294 31.0746C46.9294 29.0824 47.4412 27.5199 48.4646 26.3871C49.4958 25.2543 51.0271 24.6879 53.0583 24.6879C55.0896 24.6879 56.6169 25.2543 57.6404 26.3871C58.6716 27.5199 59.1873 29.0824 59.1873 31.0746C59.1873 33.0668 58.6716 34.6293 57.6404 35.7621C56.6169 36.8949 55.0896 37.4613 53.0583 37.4613C51.0271 37.4613 49.4958 36.8949 48.4646 35.7621C47.4412 34.6293 46.9294 33.0668 46.9294 31.0746ZM50.3982 31.0746C50.3982 32.559 50.6248 33.6136 51.0779 34.2386C51.5388 34.8558 52.199 35.1644 53.0583 35.1644C53.9177 35.1644 54.574 34.8558 55.0271 34.2386C55.488 33.6136 55.7185 32.559 55.7185 31.0746C55.7185 29.5902 55.488 28.5394 55.0271 27.9222C54.574 27.2972 53.9177 26.9847 53.0583 26.9847C52.199 26.9847 51.5388 27.2972 51.0779 27.9222C50.6248 28.5394 50.3982 29.5902 50.3982 31.0746ZM61.0623 31.0746C61.0623 29.3558 61.4333 27.8636 62.1755 26.598C62.9255 25.3246 64.2185 24.6879 66.0544 24.6879C66.7576 24.6879 67.3591 24.7894 67.8591 24.9926C68.3591 25.1957 68.8123 25.6332 69.2185 26.3051H69.2654L69.3123 25.6254C69.3435 25.1566 69.5544 24.9222 69.9451 24.9222H71.7966C72.2654 24.9222 72.4998 25.1566 72.4998 25.6254V37.098C72.4998 39.0121 71.9841 40.3324 70.9529 41.059C69.9216 41.7855 68.4294 42.1488 66.4763 42.1488C65.6482 42.1488 64.8826 42.1058 64.1794 42.0199C63.4763 41.934 62.7654 41.7191 62.0466 41.3754C61.6716 41.1957 61.6091 40.8558 61.8591 40.3558L62.281 39.5121C62.4529 39.1683 62.738 39.0902 63.1365 39.2777C63.4568 39.4261 63.8513 39.559 64.3201 39.6761C64.7966 39.7933 65.3982 39.8519 66.1248 39.8519C67.1248 39.8519 67.8904 39.6644 68.4216 39.2894C68.9529 38.9222 69.2185 38.1136 69.2185 36.8636V36.6644C69.2185 36.3519 69.2341 36.0394 69.2654 35.7269H69.2185C68.8123 36.3988 68.3591 36.8363 67.8591 37.0394C67.3591 37.2426 66.7576 37.3441 66.0544 37.3441C64.2185 37.3441 62.9255 36.7113 62.1755 35.4457C61.4333 34.1722 61.0623 32.7152 61.0623 31.0746ZM64.531 31.0746C64.531 32.2465 64.6912 33.2035 65.0115 33.9457C65.3396 34.6801 66.031 35.0472 67.0857 35.0472C67.6716 35.0472 68.1716 34.7191 68.5857 34.0629C69.0076 33.3988 69.2185 32.5394 69.2185 31.4847V30.5472C69.2185 29.4926 69.0076 28.6371 68.5857 27.9808C68.1716 27.3168 67.6716 26.9847 67.0857 26.9847C66.031 26.9847 65.3396 27.3558 65.0115 28.098C64.6912 28.8324 64.531 29.8246 64.531 31.0746ZM76.3904 37.2269C75.9216 37.2269 75.6873 36.9926 75.6873 36.5238V25.6254C75.6873 25.1566 75.9216 24.9222 76.3904 24.9222H78.2419C78.7107 24.9222 78.9451 25.1566 78.9451 25.6254V26.5863H78.9919C79.1951 26.0863 79.5349 25.6449 80.0115 25.2621C80.488 24.8793 81.0505 24.6879 81.699 24.6879C82.1443 24.6879 82.5115 24.7426 82.8005 24.8519C83.074 24.9535 83.1794 25.141 83.1169 25.4144L82.7888 26.809C82.7185 27.1215 82.5076 27.2152 82.156 27.0902C81.9529 27.0199 81.7576 26.9847 81.5701 26.9847C80.8201 26.9847 80.199 27.434 79.7068 28.3324C79.2146 29.2308 78.9685 30.5394 78.9685 32.2582V36.5238C78.9685 36.9926 78.7341 37.2269 78.2654 37.2269H76.3904ZM84.2419 33.9457C84.2419 32.3832 84.988 31.2504 86.4802 30.5472C87.9724 29.8441 89.6755 29.4691 91.5896 29.4222V28.9535C91.5896 28.2347 91.4099 27.7269 91.0505 27.4301C90.6912 27.1332 90.1912 26.9847 89.5505 26.9847C89.0974 26.9847 88.6951 27.0511 88.3435 27.184C87.9998 27.309 87.699 27.4574 87.4412 27.6293C87.1912 27.7933 86.9646 27.9613 86.7615 28.1332C86.4021 28.4457 86.1052 28.4613 85.8708 28.1801L84.8982 26.9847C84.656 26.6879 84.7146 26.3832 85.074 26.0707C85.3474 25.8285 85.6638 25.6176 86.0232 25.4379C86.3904 25.2582 86.8748 25.0902 87.4763 24.934C88.0779 24.7699 88.8591 24.6879 89.8201 24.6879C91.4451 24.6879 92.6912 25.0629 93.5583 25.8129C94.4333 26.5629 94.8708 27.6683 94.8708 29.1293V36.5238C94.8708 36.9926 94.6365 37.2269 94.1677 37.2269H92.2458C91.824 37.2269 91.613 36.9926 91.613 36.5238V36.1722H91.5896C91.1287 36.6176 90.574 36.9457 89.9255 37.1566C89.2849 37.3597 88.6951 37.4613 88.156 37.4613C86.8748 37.4613 85.9021 37.1488 85.238 36.5238C84.574 35.891 84.2419 35.0316 84.2419 33.9457ZM87.7107 33.8754C87.7107 34.1488 87.7654 34.3871 87.8748 34.5902C87.9841 34.7855 88.156 34.9301 88.3904 35.0238C88.6248 35.1176 88.8865 35.1644 89.1755 35.1644C89.574 35.1644 89.9607 35.1097 90.3357 35.0004C90.7107 34.891 91.1287 34.6332 91.5896 34.2269V31.684C90.2771 31.8324 89.3982 32.0238 88.9529 32.2582C88.5076 32.4926 88.1873 32.7347 87.9919 32.9847C87.8044 33.2347 87.7107 33.5316 87.7107 33.8754ZM98.7732 37.2269C98.3044 37.2269 98.0701 36.9926 98.0701 36.5238V25.6254C98.0701 25.1566 98.3044 24.9222 98.7732 24.9222H100.625C101.094 24.9222 101.328 25.1566 101.328 25.6254V26.3051H101.375C101.601 25.8051 101.984 25.4105 102.523 25.1215C103.062 24.8324 103.566 24.6879 104.035 24.6879C104.972 24.6879 105.699 24.9066 106.215 25.3441C106.738 25.7816 107.097 26.2699 107.293 26.809H107.34C108.019 25.9261 108.633 25.3519 109.179 25.0863C109.734 24.8207 110.441 24.6879 111.301 24.6879C112.457 24.6879 113.429 25.0707 114.219 25.8363C115.015 26.6019 115.414 28.0004 115.414 30.0316V36.5238C115.414 36.9926 115.179 37.2269 114.711 37.2269H112.836C112.367 37.2269 112.133 36.9926 112.133 36.5238V30.8754C112.133 29.1722 112.015 28.098 111.781 27.6527C111.554 27.2074 111.148 26.9847 110.562 26.9847C110.015 26.9847 109.515 27.3051 109.062 27.9457C108.609 28.5863 108.383 29.9066 108.383 31.9066V36.5238C108.383 36.9926 108.148 37.2269 107.679 37.2269H105.804C105.336 37.2269 105.101 36.9926 105.101 36.5238V30.8754C105.101 29.1722 104.984 28.098 104.75 27.6527C104.523 27.2074 104.117 26.9847 103.531 26.9847C102.984 26.9847 102.484 27.3051 102.031 27.9457C101.578 28.5785 101.351 29.8988 101.351 31.9066V36.5238C101.351 36.9926 101.117 37.2269 100.648 37.2269H98.7732ZM117.922 33.9457C117.922 32.3832 118.668 31.2504 120.16 30.5472C121.652 29.8441 123.355 29.4691 125.269 29.4222V28.9535C125.269 28.2347 125.09 27.7269 124.73 27.4301C124.371 27.1332 123.871 26.9847 123.23 26.9847C122.777 26.9847 122.375 27.0511 122.023 27.184C121.679 27.309 121.379 27.4574 121.121 27.6293C120.871 27.7933 120.644 27.9613 120.441 28.1332C120.082 28.4457 119.785 28.4613 119.551 28.1801L118.578 26.9847C118.336 26.6879 118.394 26.3832 118.754 26.0707C119.027 25.8285 119.344 25.6176 119.703 25.4379C120.07 25.2582 120.554 25.0902 121.156 24.934C121.758 24.7699 122.539 24.6879 123.5 24.6879C125.125 24.6879 126.371 25.0629 127.238 25.8129C128.113 26.5629 128.551 27.6683 128.551 29.1293V36.5238C128.551 36.9926 128.316 37.2269 127.847 37.2269H125.926C125.504 37.2269 125.293 36.9926 125.293 36.5238V36.1722H125.269C124.808 36.6176 124.254 36.9457 123.605 37.1566C122.965 37.3597 122.375 37.4613 121.836 37.4613C120.554 37.4613 119.582 37.1488 118.918 36.5238C118.254 35.891 117.922 35.0316 117.922 33.9457ZM121.39 33.8754C121.39 34.1488 121.445 34.3871 121.554 34.5902C121.664 34.7855 121.836 34.9301 122.07 35.0238C122.304 35.1176 122.566 35.1644 122.855 35.1644C123.254 35.1644 123.64 35.1097 124.015 35.0004C124.39 34.891 124.808 34.6332 125.269 34.2269V31.684C123.957 31.8324 123.078 32.0238 122.633 32.2582C122.187 32.4926 121.867 32.7347 121.672 32.9847C121.484 33.2347 121.39 33.5316 121.39 33.8754ZM139.543 27.266C139.082 27.266 138.851 27.0707 138.851 26.6801V25.5082C138.851 25.1176 139.082 24.9222 139.543 24.9222H140.34V24.5121C140.34 24.1605 140.422 23.8402 140.586 23.5511L141.488 21.9691C141.66 21.6722 141.863 21.5238 142.097 21.5238H142.918C143.386 21.5238 143.621 21.7582 143.621 22.2269V24.9222H145.519C145.98 24.9222 146.211 25.1176 146.211 25.5082V26.6801C146.211 27.0707 145.98 27.266 145.519 27.266H143.621V33.0785C143.621 33.8754 143.676 34.4496 143.785 34.8011C143.902 35.1449 144.199 35.3168 144.676 35.3168C144.918 35.3168 145.191 35.2777 145.496 35.1996C145.801 35.1136 146.039 35.0316 146.211 34.9535C146.484 34.8285 146.664 34.9183 146.75 35.223L147.101 36.559C147.172 36.8246 147.07 37.0199 146.797 37.1449C146.539 37.2621 146.183 37.3676 145.73 37.4613C145.285 37.5629 144.836 37.6136 144.383 37.6136C143.265 37.6136 142.312 37.3832 141.523 36.9222C140.734 36.4613 140.34 35.5121 140.34 34.0746V27.266H139.543ZM149.281 32.1176V25.6254C149.281 25.1566 149.515 24.9222 149.984 24.9222H151.859C152.328 24.9222 152.562 25.1566 152.562 25.6254V31.2738C152.562 32.9769 152.679 34.0511 152.914 34.4965C153.148 34.9418 153.64 35.1644 154.39 35.1644C155.187 35.1644 155.793 34.848 156.207 34.2152C156.621 33.5746 156.828 32.2504 156.828 30.2426V25.6254C156.828 25.1566 157.062 24.9222 157.531 24.9222H159.406C159.875 24.9222 160.109 25.1566 160.109 25.6254V36.5238C160.109 36.9926 159.875 37.2269 159.406 37.2269H157.554C157.086 37.2269 156.851 36.9926 156.851 36.5238V35.8441H156.804C156.445 36.4613 155.988 36.8871 155.433 37.1215C154.879 37.348 154.222 37.4613 153.465 37.4613C152.269 37.4613 151.273 37.0785 150.476 36.3129C149.679 35.5472 149.281 34.1488 149.281 32.1176ZM172.203 41.9144C171.734 41.9144 171.5 41.6801 171.5 41.2113V25.6254C171.5 25.1566 171.734 24.9222 172.203 24.9222H174.054C174.445 24.9222 174.656 25.1566 174.687 25.6254L174.734 26.3051H174.781C175.187 25.6332 175.64 25.1957 176.14 24.9926C176.64 24.7894 177.242 24.6879 177.945 24.6879C179.781 24.6879 181.07 25.3246 181.812 26.598C182.562 27.8636 182.937 29.3558 182.937 31.0746C182.937 32.7933 182.562 34.2894 181.812 35.5629C181.07 36.8285 179.781 37.4613 177.945 37.4613C177.242 37.4613 176.64 37.3597 176.14 37.1566C175.64 36.9535 175.187 36.516 174.781 35.8441H174.734C174.765 36.1566 174.781 36.4691 174.781 36.7816V41.2113C174.781 41.6801 174.547 41.9144 174.078 41.9144H172.203ZM174.781 31.6019C174.781 32.6566 174.988 33.516 175.402 34.1801C175.824 34.8363 176.328 35.1644 176.914 35.1644C177.969 35.1644 178.656 34.7972 178.976 34.0629C179.304 33.3207 179.469 32.3246 179.469 31.0746C179.469 29.8246 179.304 28.8324 178.976 28.098C178.656 27.3558 177.969 26.9847 176.914 26.9847C176.328 26.9847 175.824 27.3168 175.402 27.9808C174.988 28.6371 174.781 29.4926 174.781 30.5472V31.6019ZM186.172 37.2269C185.703 37.2269 185.469 36.9926 185.469 36.5238V25.6254C185.469 25.1566 185.703 24.9222 186.172 24.9222H188.023C188.492 24.9222 188.726 25.1566 188.726 25.6254V26.5863H188.773C188.976 26.0863 189.316 25.6449 189.793 25.2621C190.269 24.8793 190.832 24.6879 191.48 24.6879C191.926 24.6879 192.293 24.7426 192.582 24.8519C192.855 24.9535 192.961 25.141 192.898 25.4144L192.57 26.809C192.5 27.1215 192.289 27.2152 191.937 27.0902C191.734 27.0199 191.539 26.9847 191.351 26.9847C190.601 26.9847 189.98 27.434 189.488 28.3324C188.996 29.2308 188.75 30.5394 188.75 32.2582V36.5238C188.75 36.9926 188.515 37.2269 188.047 37.2269H186.172ZM194.023 31.0746C194.023 29.0824 194.535 27.5199 195.558 26.3871C196.59 25.2543 198.121 24.6879 200.152 24.6879C202.183 24.6879 203.711 25.2543 204.734 26.3871C205.765 27.5199 206.281 29.0824 206.281 31.0746C206.281 33.0668 205.765 34.6293 204.734 35.7621C203.711 36.8949 202.183 37.4613 200.152 37.4613C198.121 37.4613 196.59 36.8949 195.558 35.7621C194.535 34.6293 194.023 33.0668 194.023 31.0746ZM197.492 31.0746C197.492 32.559 197.719 33.6136 198.172 34.2386C198.633 34.8558 199.293 35.1644 200.152 35.1644C201.011 35.1644 201.668 34.8558 202.121 34.2386C202.582 33.6136 202.812 32.559 202.812 31.0746C202.812 29.5902 202.582 28.5394 202.121 27.9222C201.668 27.2972 201.011 26.9847 200.152 26.9847C199.293 26.9847 198.633 27.2972 198.172 27.9222C197.719 28.5394 197.492 29.5902 197.492 31.0746ZM208.883 37.2269C208.211 37.2269 208.07 36.9418 208.461 36.3715L212.34 30.7465L208.918 25.7777C208.527 25.2074 208.668 24.9222 209.34 24.9222H211.554C211.906 24.9222 212.172 25.0785 212.351 25.391L214.168 28.5551L215.984 25.391C216.164 25.0785 216.429 24.9222 216.781 24.9222H218.996C219.676 24.9222 219.816 25.2074 219.418 25.7777L215.972 30.7465L219.875 36.3715C220.273 36.9418 220.133 37.2269 219.453 37.2269H217.238C216.894 37.2269 216.629 37.0707 216.441 36.7582L214.168 32.9379L211.894 36.7582C211.707 37.0707 211.441 37.2269 211.097 37.2269H208.883ZM222.242 37.2269C221.773 37.2269 221.539 36.9926 221.539 36.5238V25.6254C221.539 25.1566 221.773 24.9222 222.242 24.9222H224.117C224.586 24.9222 224.82 25.1566 224.82 25.6254V36.5238C224.82 36.9926 224.586 37.2269 224.117 37.2269H222.242ZM222.242 23.1176C221.773 23.1176 221.539 22.8832 221.539 22.4144V20.9144C221.539 20.4457 221.773 20.2113 222.242 20.2113H224.117C224.586 20.2113 224.82 20.4457 224.82 20.9144V22.4144C224.82 22.8832 224.586 23.1176 224.117 23.1176H222.242ZM228.711 37.2269C228.242 37.2269 228.008 36.9926 228.008 36.5238V25.6254C228.008 25.1566 228.242 24.9222 228.711 24.9222H230.562C231.031 24.9222 231.265 25.1566 231.265 25.6254V26.3051H231.312C231.539 25.8051 231.922 25.4105 232.461 25.1215C233 24.8324 233.504 24.6879 233.972 24.6879C234.91 24.6879 235.636 24.9066 236.152 25.3441C236.676 25.7816 237.035 26.2699 237.23 26.809H237.277C237.957 25.9261 238.57 25.3519 239.117 25.0863C239.672 24.8207 240.379 24.6879 241.238 24.6879C242.394 24.6879 243.367 25.0707 244.156 25.8363C244.953 26.6019 245.351 28.0004 245.351 30.0316V36.5238C245.351 36.9926 245.117 37.2269 244.648 37.2269H242.773C242.304 37.2269 242.07 36.9926 242.07 36.5238V30.8754C242.07 29.1722 241.953 28.098 241.719 27.6527C241.492 27.2074 241.086 26.9847 240.5 26.9847C239.953 26.9847 239.453 27.3051 239 27.9457C238.547 28.5863 238.32 29.9066 238.32 31.9066V36.5238C238.32 36.9926 238.086 37.2269 237.617 37.2269L235.742 37.2269C235.273 37.2269 235.039 36.9926 235.039 36.5238V30.8754C235.039 29.1722 234.922 28.098 234.687 27.6527C234.461 27.2074 234.054 26.9847 233.469 26.9847C232.922 26.9847 232.422 27.3051 231.969 27.9457C231.515 28.5785 231.289 29.8988 231.289 31.9066V36.5238C231.289 36.9926 231.054 37.2269 230.586 37.2269H228.711ZM247.859 33.9457C247.859 32.3832 248.605 31.2504 250.097 30.5472C251.59 29.8441 253.293 29.4691 255.207 29.4222V28.9535C255.207 28.2347 255.027 27.7269 254.668 27.4301C254.308 27.1332 253.808 26.9847 253.168 26.9847C252.715 26.9847 252.312 27.0511 251.961 27.184C251.617 27.309 251.316 27.4574 251.058 27.6293C250.808 27.7933 250.582 27.9613 250.379 28.1332C250.019 28.4457 249.722 28.4613 249.488 28.1801L248.515 26.9847C248.273 26.6879 248.332 26.3832 248.691 26.0707C248.965 25.8285 249.281 25.6176 249.64 25.4379C250.008 25.2582 250.492 25.0902 251.094 24.934C251.695 24.7699 252.476 24.6879 253.437 24.6879C255.062 24.6879 256.308 25.0629 257.176 25.8129C258.051 26.5629 258.488 27.6683 258.488 29.1293V36.5238C258.488 36.9926 258.254 37.2269 257.785 37.2269H255.863C255.441 37.2269 255.23 36.9926 255.23 36.5238V36.1722H255.207C254.746 36.6176 254.191 36.9457 253.543 37.1566C252.902 37.3597 252.312 37.4613 251.773 37.4613C250.492 37.4613 249.519 37.1488 248.855 36.5238C248.191 35.891 247.859 35.0316 247.859 33.9457ZM251.328 33.8754C251.328 34.1488 251.383 34.3871 251.492 34.5902C251.601 34.7855 251.773 34.9301 252.008 35.0238C252.242 35.1176 252.504 35.1644 252.793 35.1644C253.191 35.1644 253.578 35.1097 253.953 35.0004C254.328 34.891 254.746 34.6332 255.207 34.2269V31.684C253.894 31.8324 253.015 32.0238 252.57 32.2582C252.125 32.4926 251.804 32.7347 251.609 32.9847C251.422 33.2347 251.328 33.5316 251.328 33.8754ZM269.304 28.8246C269.304 26.1293 269.988 23.9886 271.355 22.4027C272.722 20.8168 274.695 20.0238 277.273 20.0238C278.758 20.0238 280.015 20.2543 281.047 20.7152C282.078 21.1761 282.804 21.8441 283.226 22.7191C283.508 23.2972 283.461 23.6879 283.086 23.891L281.679 24.641C281.187 24.9066 280.781 24.7582 280.461 24.1957C280.258 23.8363 279.879 23.5121 279.324 23.223C278.777 22.934 278.133 22.7894 277.39 22.7894C275.75 22.7894 274.601 23.309 273.945 24.348C273.289 25.3793 272.961 26.8715 272.961 28.8246C272.961 30.7777 273.289 32.2738 273.945 33.3129C274.601 34.3441 275.75 34.8597 277.39 34.8597C278.273 34.8597 279.015 34.6605 279.617 34.2621C280.226 33.8636 280.648 33.4847 280.883 33.1254C281.265 32.5394 281.672 32.391 282.101 32.6801L283.508 33.6176C283.89 33.8754 283.929 34.266 283.625 34.7894C283.172 35.5707 282.394 36.2386 281.293 36.7933C280.191 37.348 278.851 37.6254 277.273 37.6254C274.734 37.6254 272.769 36.8324 271.379 35.2465C269.996 33.6605 269.304 31.5199 269.304 28.8246ZM287.211 37.2269C286.742 37.2269 286.508 36.9926 286.508 36.5238V25.6254C286.508 25.1566 286.742 24.9222 287.211 24.9222H289.086C289.554 24.9222 289.789 25.1566 289.789 25.6254V36.5238C289.789 36.9926 289.554 37.2269 289.086 37.2269H287.211ZM287.211 23.1176C286.742 23.1176 286.508 22.8832 286.508 22.4144V20.9144C286.508 20.4457 286.742 20.2113 287.211 20.2113H289.086C289.554 20.2113 289.789 20.4457 289.789 20.9144V22.4144C289.789 22.8832 289.554 23.1176 289.086 23.1176H287.211ZM292.566 27.266C292.105 27.266 291.875 27.0707 291.875 26.6801V25.5082C291.875 25.1176 292.105 24.9222 292.566 24.9222H293.363V24.5121C293.363 24.1605 293.445 23.8402 293.609 23.5511L294.511 21.9691C294.683 21.6722 294.886 21.5238 295.121 21.5238H295.941C296.41 21.5238 296.644 21.7582 296.644 22.2269V24.9222H298.543C299.004 24.9222 299.234 25.1176 299.234 25.5082V26.6801C299.234 27.0707 299.004 27.266 298.543 27.266H296.644V33.0785C296.644 33.8754 296.699 34.4496 296.808 34.8011C296.926 35.1449 297.222 35.3168 297.699 35.3168C297.941 35.3168 298.215 35.2777 298.519 35.1996C298.824 35.1136 299.062 35.0316 299.234 34.9535C299.508 34.8285 299.687 34.9183 299.773 35.223L300.125 36.559C300.195 36.8246 300.094 37.0199 299.82 37.1449C299.562 37.2621 299.207 37.3676 298.754 37.4613C298.308 37.5629 297.859 37.6136 297.406 37.6136C296.289 37.6136 295.336 37.3832 294.547 36.9222C293.758 36.4613 293.363 35.5121 293.363 34.0746V27.266H292.566ZM301.672 33.9457C301.672 32.3832 302.418 31.2504 303.91 30.5472C305.402 29.8441 307.105 29.4691 309.019 29.4222V28.9535C309.019 28.2347 308.84 27.7269 308.48 27.4301C308.121 27.1332 307.621 26.9847 306.98 26.9847C306.527 26.9847 306.125 27.0511 305.773 27.184C305.429 27.309 305.129 27.4574 304.871 27.6293C304.621 27.7933 304.394 27.9613 304.191 28.1332C303.832 28.4457 303.535 28.4613 303.301 28.1801L302.328 26.9847C302.086 26.6879 302.144 26.3832 302.504 26.0707C302.777 25.8285 303.094 25.6176 303.453 25.4379C303.82 25.2582 304.304 25.0902 304.906 24.934C305.508 24.7699 306.289 24.6879 307.25 24.6879C308.875 24.6879 310.121 25.0629 310.988 25.8129C311.863 26.5629 312.301 27.6683 312.301 29.1293V36.5238C312.301 36.9926 312.066 37.2269 311.597 37.2269H309.676C309.254 37.2269 309.043 36.9926 309.043 36.5238V36.1722H309.019C308.558 36.6176 308.004 36.9457 307.355 37.1566C306.715 37.3597 306.125 37.4613 305.586 37.4613C304.304 37.4613 303.332 37.1488 302.668 36.5238C302.004 35.891 301.672 35.0316 301.672 33.9457ZM305.14 33.8754C305.14 34.1488 305.195 34.3871 305.304 34.5902C305.414 34.7855 305.586 34.9301 305.82 35.0238C306.054 35.1176 306.316 35.1644 306.605 35.1644C307.004 35.1644 307.39 35.1097 307.765 35.0004C308.14 34.891 308.558 34.6332 309.019 34.2269V31.684C307.707 31.8324 306.828 32.0238 306.383 32.2582C305.937 32.4926 305.617 32.7347 305.422 32.9847C305.234 33.2347 305.14 33.5316 305.14 33.8754ZM316.086 21.3011C316.07 20.7152 316.344 20.4222 316.906 20.4222H318.781C319.344 20.4222 319.617 20.7152 319.601 21.3011L319.285 31.5433C319.269 32.0511 319.015 32.3051 318.523 32.3051H317.164C316.672 32.3051 316.418 32.0511 316.402 31.5433L316.086 21.3011ZM316.953 37.2269C316.406 37.2269 316.133 36.934 316.133 36.348V34.7777C316.133 34.1918 316.406 33.8988 316.953 33.8988H318.734C319.281 33.8988 319.554 34.1918 319.554 34.7777V36.348C319.554 36.934 319.281 37.2269 318.734 37.2269H316.953Z" fill="black"/>
<ellipse cx="214.748" cy="193.5" rx="12.7475" ry="10.5" fill="#41CBE2" fill-opacity="0.29"/>
<defs>
<clipPath id="clip0_107_119">
<rect x="30.0981" y="121.841" width="27.1907" height="18.4688" rx="9.23442" fill="white"/>
</clipPath>
</defs>
</svg>
